<mxfile host="65bd71144e">
    <diagram id="27avsoiC1N6lRWakcuxC" name="第 1 页">
        <mxGraphModel dx="832" dy="1689" grid="1" gridSize="10" guides="1" tooltips="1" connect="1" arrows="1" fold="1" page="1" pageScale="1" pageWidth="827" pageHeight="1169" math="0" shadow="0">
            <root>
                <mxCell id="0"/>
                <mxCell id="1" parent="0"/>
                <mxCell id="2" value="供应链" style="ellipse;whiteSpace=wrap;html=1;" vertex="1" parent="1">
                    <mxGeometry x="100" y="30" width="90" height="40" as="geometry"/>
                </mxCell>
                <mxCell id="3" value="顾客" style="ellipse;whiteSpace=wrap;html=1;" vertex="1" parent="1">
                    <mxGeometry x="210" y="30" width="90" height="40" as="geometry"/>
                </mxCell>
                <mxCell id="5" value="供应商" style="ellipse;whiteSpace=wrap;html=1;" vertex="1" parent="1">
                    <mxGeometry x="324" y="30" width="90" height="40" as="geometry"/>
                </mxCell>
                <mxCell id="6" value="过程" style="ellipse;whiteSpace=wrap;html=1;" vertex="1" parent="1">
                    <mxGeometry x="100" y="90" width="90" height="40" as="geometry"/>
                </mxCell>
                <mxCell id="8" value="产品" style="ellipse;whiteSpace=wrap;html=1;" vertex="1" parent="1">
                    <mxGeometry x="220" y="100" width="90" height="40" as="geometry"/>
                </mxCell>
                <mxCell id="9" value="服务" style="ellipse;whiteSpace=wrap;html=1;" vertex="1" parent="1">
                    <mxGeometry x="324" y="90" width="90" height="40" as="geometry"/>
                </mxCell>
                <mxCell id="10" value="原材料" style="ellipse;whiteSpace=wrap;html=1;" vertex="1" parent="1">
                    <mxGeometry x="420" y="20" width="90" height="40" as="geometry"/>
                </mxCell>
                <mxCell id="12" value="采购" style="ellipse;whiteSpace=wrap;html=1;" vertex="1" parent="1">
                    <mxGeometry x="450" y="90" width="90" height="40" as="geometry"/>
                </mxCell>
                <mxCell id="13" value="成品" style="ellipse;whiteSpace=wrap;html=1;" vertex="1" parent="1">
                    <mxGeometry x="530" y="10" width="90" height="40" as="geometry"/>
                </mxCell>
                <mxCell id="14" value="销售" style="ellipse;whiteSpace=wrap;html=1;" vertex="1" parent="1">
                    <mxGeometry x="570" y="150" width="90" height="40" as="geometry"/>
                </mxCell>
                <mxCell id="15" value="计划" style="ellipse;whiteSpace=wrap;html=1;" vertex="1" parent="1">
                    <mxGeometry x="120" y="160" width="90" height="40" as="geometry"/>
                </mxCell>
                <mxCell id="16" value="购买" style="ellipse;whiteSpace=wrap;html=1;" vertex="1" parent="1">
                    <mxGeometry x="234" y="160" width="90" height="40" as="geometry"/>
                </mxCell>
                <mxCell id="18" value="制造" style="ellipse;whiteSpace=wrap;html=1;" vertex="1" parent="1">
                    <mxGeometry x="340" y="160" width="90" height="40" as="geometry"/>
                </mxCell>
                <mxCell id="19" value="移动" style="ellipse;whiteSpace=wrap;html=1;" vertex="1" parent="1">
                    <mxGeometry x="460" y="150" width="90" height="40" as="geometry"/>
                </mxCell>
                <mxCell id="20" value="&lt;div style=&quot;font-family: Consolas, &amp;quot;Courier New&amp;quot;, monospace; font-size: 14px; line-height: 19px;&quot;&gt;&lt;div style=&quot;&quot;&gt;&lt;font color=&quot;#000000&quot;&gt;&amp;nbsp;为企业带来利益：&lt;/font&gt;&lt;/div&gt;&lt;div style=&quot;&quot;&gt;&lt;font color=&quot;#000000&quot;&gt;（1）在供应链范围内提高战略、作业及财务绩效；&lt;/font&gt;&lt;/div&gt;&lt;div style=&quot;&quot;&gt;&lt;font color=&quot;#000000&quot;&gt;（2）降低成本，有效管理周转资金（WorkingCapital)；&lt;/font&gt;&lt;/div&gt;&lt;div style=&quot;&quot;&gt;&lt;font color=&quot;#000000&quot;&gt;（3）有效管理库存的原材料、在制品和制成品；&lt;/font&gt;&lt;/div&gt;&lt;div style=&quot;&quot;&gt;&lt;font color=&quot;#000000&quot;&gt;（4）降低交易成本，提高供应链成员间的交易效率；&lt;/font&gt;&lt;/div&gt;&lt;div style=&quot;&quot;&gt;&lt;font color=&quot;#000000&quot;&gt;（5）增加顾客价值，提供顾客所需的产品和服务，提供一揽子解决方案；&lt;/font&gt;&lt;/div&gt;&lt;div style=&quot;&quot;&gt;&lt;font color=&quot;#000000&quot;&gt;（6）增强平衡供需的能力。&lt;/font&gt;&lt;/div&gt;&lt;/div&gt;" style="shape=note;strokeWidth=2;fontSize=10;size=20;whiteSpace=wrap;html=1;fillColor=#fff2cc;strokeColor=#d6b656;fontColor=#666600;align=left;" vertex="1" parent="1">
                    <mxGeometry x="30" y="-310" width="470" height="140" as="geometry"/>
                </mxCell>
                <mxCell id="21" value="&lt;div style=&quot;font-family: Consolas, &amp;quot;Courier New&amp;quot;, monospace; line-height: 19px;&quot;&gt;&lt;font color=&quot;#000000&quot;&gt;良好的供应链管理可使&lt;/font&gt;&lt;/div&gt;&lt;div style=&quot;font-family: Consolas, &amp;quot;Courier New&amp;quot;, monospace; line-height: 19px;&quot;&gt;&lt;font color=&quot;#000000&quot;&gt;库存减少50％&lt;/font&gt;&lt;/div&gt;&lt;div style=&quot;font-family: Consolas, &amp;quot;Courier New&amp;quot;, monospace; line-height: 19px;&quot;&gt;&lt;font color=&quot;#000000&quot;&gt;供应链总成本占收入比降低20％，&lt;/font&gt;&lt;/div&gt;&lt;div style=&quot;font-family: Consolas, &amp;quot;Courier New&amp;quot;, monospace; line-height: 19px;&quot;&gt;&lt;font color=&quot;#000000&quot;&gt;准时交付率提高40％，缩短交付周期&lt;/font&gt;&lt;/div&gt;&lt;div style=&quot;font-family: Consolas, &amp;quot;Courier New&amp;quot;, monospace; line-height: 19px;&quot;&gt;&lt;span style=&quot;color: rgb(0, 0, 0);&quot;&gt;库存周转速度提高2倍&lt;/span&gt;&lt;/div&gt;&lt;span style=&quot;color: rgb(0, 0, 0); font-family: Consolas, &amp;quot;Courier New&amp;quot;, monospace;&quot;&gt;&lt;br&gt;&lt;/span&gt;" style="shape=note;strokeWidth=2;fontSize=14;size=20;whiteSpace=wrap;html=1;fillColor=#fff2cc;strokeColor=#d6b656;fontColor=#666600;labelBackgroundColor=none;align=left;" vertex="1" parent="1">
                    <mxGeometry x="30" y="-150" width="470" height="120" as="geometry"/>
                </mxCell>
                <mxCell id="23" value="生产" style="ellipse;whiteSpace=wrap;html=1;" vertex="1" parent="1">
                    <mxGeometry x="550" y="70" width="90" height="40" as="geometry"/>
                </mxCell>
                <mxCell id="24" value="交付" style="ellipse;whiteSpace=wrap;html=1;" vertex="1" parent="1">
                    <mxGeometry x="640" width="90" height="40" as="geometry"/>
                </mxCell>
                <mxCell id="25" value="生产计划" style="ellipse;whiteSpace=wrap;html=1;" vertex="1" parent="1">
                    <mxGeometry x="660" y="60" width="90" height="40" as="geometry"/>
                </mxCell>
                <mxCell id="26" value="交付计划" style="ellipse;whiteSpace=wrap;html=1;" vertex="1" parent="1">
                    <mxGeometry x="700" y="120" width="90" height="40" as="geometry"/>
                </mxCell>
                <mxCell id="27" value="核心域" style="ellipse;whiteSpace=wrap;html=1;labelBackgroundColor=none;fontSize=10;fillColor=#d5e8d4;strokeColor=#82b366;" vertex="1" parent="1">
                    <mxGeometry x="40" y="240" width="80" height="40" as="geometry"/>
                </mxCell>
                <mxCell id="28" value="Inbound" style="ellipse;whiteSpace=wrap;html=1;" vertex="1" parent="1">
                    <mxGeometry x="280" y="220" width="90" height="40" as="geometry"/>
                </mxCell>
                <mxCell id="29" value="OutBound" style="ellipse;whiteSpace=wrap;html=1;" vertex="1" parent="1">
                    <mxGeometry x="400" y="210" width="90" height="40" as="geometry"/>
                </mxCell>
                <mxCell id="30" value="**商品管理**、**产品企划**、**生产**、**仓储**、**物流管理**和**销售**" style="shape=note;strokeWidth=2;fontSize=14;size=20;whiteSpace=wrap;html=1;fillColor=#fff2cc;strokeColor=#d6b656;fontColor=#666600;labelBackgroundColor=none;" vertex="1" parent="1">
                    <mxGeometry x="160" y="260" width="110.00000000000001" height="80" as="geometry"/>
                </mxCell>
            </root>
        </mxGraphModel>
    </diagram>
</mxfile>